<?xml version="1.0" encoding="UTF-8"?>
<svg id="Layer_1" xmlns="http://www.w3.org/2000/svg" version="1.1" viewBox="0 0 260 70">
  <!-- Generator: Adobe Illustrator 29.8.0, SVG Export Plug-In . SVG Version: 2.1.1 Build 160)  -->
  <defs>
    <style>
      .st0 {
        fill: #1c1f21;
      }

      .st1 {
        fill: #2ba5b2;
      }

      .st2 {
        fill: #0080ff;
      }

      .st3 {
        fill: #c74ee5;
      }
    </style>
  </defs>
  <polygon class="st2" points="42.53 40.47 52.36 46.14 51.06 48.4 46.04 46.49 42 44.12 42.53 43.47 42.53 40.47"/>
  <polygon class="st2" points="42.53 43.47 51.06 48.4 49.76 50.65 39.93 44.98 42.53 43.47 42.53 43.47"/>
  <polygon class="st2" points="42.53 28.87 42.53 34.43 51.06 29.5 51.06 35.16 55.88 35.16 55.88 21.15 42.53 28.87"/>
  <polygon class="st2" points="51.05 48.39 43.57 52.72 45.98 56.89 55.87 51.17 55.87 39.71 51.06 39.71 51.05 48.39"/>
  <polygon class="st2" points="34.69 57.85 34.7 47.97 29.88 50.75 29.87 66.19 42.04 59.16 39.64 54.99 34.69 57.85"/>
  <polygon class="st1" points="14.16 40.47 4.33 46.14 5.63 48.4 10.64 46.49 14.69 44.12 14.16 43.47 14.16 40.47"/>
  <polygon class="st1" points="14.16 43.47 5.63 48.4 6.93 50.65 16.76 44.98 14.16 43.47 14.16 43.47"/>
  <g>
    <polygon class="st1" points=".81 35.16 5.63 35.16 5.62 29.5 14.15 34.43 14.15 28.87 .81 21.15 .81 35.16"/>
    <polygon class="st1" points="5.63 39.71 .81 39.71 .82 51.17 10.71 56.89 13.11 52.72 5.63 48.39 5.63 39.71"/>
    <polygon class="st1" points="26.81 50.75 21.99 47.97 21.99 57.85 17.05 54.99 14.64 59.16 26.81 66.19 26.81 50.75"/>
  </g>
  <polygon class="st3" points="28.34 19.11 28.66 19.09 29.23 13.92 28.34 8.59 25.74 8.59 25.74 20.61 28.34 19.11 28.34 19.11"/>
  <polygon class="st3" points="30.95 20.61 30.95 8.59 28.34 8.59 28.34 19.11 30.95 20.61"/>
  <g>
    <polygon class="st3" points="28.34 3.55 18.54 9.2 20.95 13.37 28.34 9.1 35.83 13.42 38.24 9.25 28.34 3.55"/>
    <polygon class="st3" points="17.01 15.64 14.6 11.47 2.34 18.55 15.76 26.29 20.57 23.51 11.97 18.55 17.01 15.64"/>
    <polygon class="st3" points="42.18 11.53 39.77 15.7 44.71 18.55 36.04 23.55 40.86 26.33 54.35 18.55 42.18 11.53"/>
  </g>
  <g>
    <path class="st0" d="M96.26,24.23v26.21h-4.98l-13.07-15.92v15.92h-5.99v-26.21h5.02l13.03,15.92v-15.92s5.99,0,5.99,0Z"/>
    <path class="st0" d="M123.9,45.57v4.87h-20.3v-26.21h19.81v4.87h-13.78v5.69h12.17v4.72h-12.17v6.07h14.27Z"/>
    <path class="st0" d="M146.86,50.44l-6.33-9.1-6.22,9.1h-6.97l9.7-13.33-9.21-12.88h6.89l6.03,8.5,5.92-8.5h6.55l-9.14,12.66,9.77,13.56h-7,.01Z"/>
    <path class="st0" d="M163.26,29.17h-8.39v-4.94h22.84v4.94h-8.39v21.27h-6.07v-21.27h.01Z"/>
    <path class="st0" d="M184.62,47.78c-2.08-2.07-3.13-5.03-3.13-8.87v-14.68h6.07v14.46c0,4.69,1.95,7.04,5.84,7.04,1.9,0,3.34-.57,4.34-1.7,1-1.14,1.5-2.91,1.5-5.34v-14.46h5.99v14.68c0,3.84-1.04,6.8-3.13,8.87-2.08,2.07-5,3.11-8.74,3.11s-6.66-1.04-8.74-3.11h0Z"/>
    <path class="st0" d="M227.56,50.44l-5.06-7.3h-5.58v7.3h-6.07v-26.21h11.35c2.32,0,4.34.39,6.05,1.16s3.03,1.87,3.95,3.3,1.39,3.11,1.39,5.06-.47,3.63-1.4,5.04c-.94,1.41-2.27,2.49-3.99,3.24l5.88,8.43h-6.52v-.02ZM226.03,30.35c-.95-.79-2.34-1.18-4.16-1.18h-4.94v9.14h4.94c1.82,0,3.21-.4,4.16-1.2.95-.8,1.42-1.92,1.42-3.37s-.47-2.6-1.42-3.39h0Z"/>
    <path class="st0" d="M259.81,45.57v4.87h-20.3v-26.21h19.81v4.87h-13.78v5.69h12.17v4.72h-12.17v6.07h14.27Z"/>
  </g>
</svg>